<?xml version="1.0" standalone="no"?>
<!DOCTYPE svg PUBLIC "-//W3C//DTD SVG 20010904//EN"
 "http://www.w3.org/TR/2001/REC-SVG-20010904/DTD/svg10.dtd">
<svg version="1.0" xmlns="http://www.w3.org/2000/svg"
 width="512.000000pt" height="512.000000pt" viewBox="0 0 512.000000 512.000000"
 preserveAspectRatio="xMidYMid meet">
<metadata>
Created by potrace 1.11, written by Peter Selinger 2001-2013
</metadata>
<g transform="translate(0.000000,512.000000) scale(0.100000,-0.100000)"
fill="#000000" stroke="none">
<path d="M1231 4756 c-46 -26 -50 -47 -51 -263 l0 -203 -206 -2 c-184 -3 -208
-5 -218 -21 -19 -30 4 -52 63 -55 28 -2 51 -5 51 -7 0 -3 -22 -42 -50 -89 -27
-47 -50 -89 -50 -95 0 -10 54 -16 108 -11 21 1 23 -2 20 -32 -2 -25 1 -34 15
-36 14 -3 17 4 17 32 0 20 3 35 8 35 20 -3 32 2 32 16 0 8 -9 15 -19 15 -17 0
-19 8 -19 85 l0 85 124 0 124 0 0 -310 c0 -218 4 -317 12 -335 26 -58 -46 -55
1368 -55 1197 0 1304 1 1330 17 16 9 33 27 39 40 7 16 11 129 11 323 l0 300
162 2 c161 3 163 3 175 28 8 16 27 28 57 37 30 9 44 18 40 27 -4 10 -14 10
-52 1 -26 -7 -48 -12 -50 -10 -1 1 9 26 23 56 35 75 40 111 21 147 -18 36 -55
47 -102 32 -37 -12 -50 -47 -14 -36 11 3 28 8 37 11 10 3 26 0 37 -8 26 -19
23 -74 -9 -146 l-28 -61 -148 0 -149 0 -1 210 c-1 116 -2 213 -3 218 -3 16
-22 39 -46 55 -23 16 -120 17 -1330 17 -1064 -1 -1309 -3 -1329 -14z m-332
-645 c1 -76 -3 -81 -61 -73 l-28 4 20 28 c11 16 20 31 20 33 0 7 41 77 45 77
1 0 3 -31 4 -69z"/>
<path d="M2310 3473 c-39 -4 -187 -22 -210 -26 -36 -7 -90 -29 -90 -38 0 -16
44 -37 90 -44 24 -4 47 -8 50 -10 17 -10 216 -20 415 -20 344 0 527 25 542 72
5 15 -72 38 -177 54 -68 10 -537 19 -620 12z"/>
<path d="M2318 3295 c-1 -1 -34 -5 -72 -9 -113 -10 -195 -27 -218 -46 l-22
-17 25 -16 c23 -15 37 -18 124 -31 22 -3 56 -9 75 -12 19 -3 152 -7 295 -9
272 -2 445 11 538 41 51 17 56 32 16 51 -23 11 -37 15 -109 27 -19 3 -51 8
-70 12 -36 6 -575 15 -582 9z"/>
<path d="M2310 3113 c-53 -5 -191 -23 -225 -29 -34 -6 -75 -30 -75 -44 0 -9
76 -34 135 -45 118 -20 552 -28 715 -12 281 26 324 78 96 114 -84 14 -550 25
-646 16z"/>
<path d="M1528 2923 c-14 -9 -31 -27 -37 -40 -15 -34 -15 -1593 0 -1626 6 -13
23 -31 39 -40 26 -16 113 -17 1027 -17 549 0 1008 3 1020 6 13 4 32 21 43 39
20 32 20 48 20 825 0 721 -1 794 -17 820 -9 16 -27 33 -40 39 -17 8 -326 11
-1026 11 -916 -1 -1004 -2 -1029 -17z"/>
<path d="M1031 2856 c-51 -28 -50 -25 -51 -569 0 -457 2 -512 17 -537 28 -49
88 -63 142 -36 50 26 51 34 51 511 l0 445 80 0 c91 0 126 12 146 51 27 52 8
115 -41 137 -37 17 -312 16 -344 -2z"/>
<path d="M3739 2855 c-33 -18 -53 -66 -45 -106 12 -61 50 -79 170 -79 l96 0 0
-331 c0 -291 2 -334 17 -359 28 -49 88 -63 142 -36 50 26 51 38 51 457 0 423
-1 433 -55 457 -39 18 -342 16 -376 -3z"/>
<path d="M3912 1693 l3 -197 28 1 c15 1 36 1 47 2 13 1 20 8 20 21 0 18 -16
25 -42 21 -5 0 -8 68 -8 153 0 139 2 153 18 153 35 0 40 3 35 23 -4 17 -14 20
-54 20 l-49 0 2 -197z"/>
<path d="M4147 1883 c-9 -15 8 -38 28 -38 19 0 20 -7 21 -151 l2 -151 -23 3
c-24 2 -40 -19 -29 -37 3 -5 27 -9 54 -9 l48 0 0 195 0 195 -48 0 c-27 0 -51
-3 -53 -7z"/>
<path d="M960 1495 c0 -151 1 -165 18 -165 16 0 17 14 17 165 0 150 -2 165
-17 165 -16 0 -18 -15 -18 -165z"/>
<path d="M1080 1606 c0 -21 11 -33 55 -61 30 -19 59 -35 65 -35 24 0 7 -21
-37 -46 -65 -37 -83 -54 -83 -76 0 -27 13 -23 110 35 111 65 113 79 25 130
-33 19 -77 45 -97 57 l-38 22 0 -26z"/>
<path d="M1793 1048 c-18 -13 -34 -32 -37 -43 -11 -39 -6 -503 5 -528 6 -13
23 -31 39 -40 33 -20 117 -22 155 -5 51 23 55 46 55 312 0 265 -4 287 -51 312
-44 22 -128 18 -166 -8z"/>
<path d="M3149 1055 c-15 -8 -32 -29 -38 -46 -15 -43 -15 -499 0 -532 16 -36
60 -57 119 -57 56 0 85 11 111 44 16 19 18 50 19 272 1 273 -3 295 -51 320
-36 18 -126 17 -160 -1z"/>
</g>
</svg>
